# xmcd
#
# Track frame offsets: 
#        150
#        12654
#        27745
#        41226
#        53543
#        63216
#        72979
#        86378
#        98249
#        110525
#        125350
#        135426
#
# Disc length: 1933 seconds
#
# Revision: 0
# Processed by: cddbd v1.5.2PL0 Copyright (c) Steve Scherf et al.
# Submitted via: ExactAudioCopy v0.99pb3
#
DISCID=a2078b0c
DTITLE=The Dixie Hummingbirds - Move On Up A Little Higher
DYEAR=1900
DGENRE=Gospel
TTITLE0=Move On Up A Little Higher
TTITLE1=In The Morning
TTITLE2=Beaming From Heaven
TTITLE3=Jesus Will Answer Prayer
TTITLE4=Young Man
TTITLE5=I'll Be Satisfied
TTITLE6=Standing On The Highway
TTITLE7=Get Away Jordan
TTITLE8=Mercy Lord
TTITLE9=Is There Anyone In Heaven That You Know
TTITLE10=Cool Down Yonder
TTITLE11=I Must Have Jesus
EXTD=
EXTT0=
EXTT1=
EXTT2=
EXTT3=
EXTT4=
EXTT5=
EXTT6=
EXTT7=
EXTT8=
EXTT9=
EXTT10=
EXTT11=
PLAYORDER=
